<svg id="Layer_1" data-name="Layer 1" xmlns="http://www.w3.org/2000/svg" viewBox="0 0 1683 1095"><defs><style>.cls-1{fill:#fff;}.cls-2,.cls-4{fill:none;stroke:#000;stroke-miterlimit:10;}.cls-2{stroke-width:3px;}.cls-3{font-size:36px;}.cls-3,.cls-5{font-family:MyriadPro-Regular, Myriad Pro;}.cls-4{stroke-width:4px;}.cls-5{font-size:25.9px;}.cls-6{letter-spacing:0em;}.cls-7{letter-spacing:-0.01em;}.cls-8{letter-spacing:-0.01em;}</style></defs><title>Untitled-1</title><rect class="cls-1" x="694.5" y="0.5" width="636" height="52"/><path d="M1068,40V91H433V40h635m1-1H432V92h637V39Z" transform="translate(262 -39)"/><rect class="cls-1" x="679.5" y="814.5" width="636" height="52"/><path d="M1053,854v51H418V854h635m1-1H417v53h637V853Z" transform="translate(262 -39)"/><rect class="cls-1" x="1070" y="377" width="612" height="51"/><path d="M1419,417v49H809V417h610m2-2H807v53h614V415Z" transform="translate(262 -39)"/><line class="cls-2" x1="1012.5" y1="52.5" x2="1012.5" y2="97.82"/><path d="M750.5,135.61c3.13-3.13,9.33-4.63,13.63-4.75-5.77,4.3-10.81,9.88-13.63,16.64-2.7-6.76-8-12.1-13.63-16.64C741.47,131.23,747.06,132.35,750.5,135.61Z" transform="translate(262 -39)"/><rect class="cls-2" x="942.5" y="113.5" width="138" height="97"/><line class="cls-2" x1="1011.5" y1="213" x2="1011.5" y2="258.32"/><path d="M749.5,296.11c3.13-3.13,9.33-4.63,13.63-4.75-5.77,4.3-10.81,9.88-13.63,16.64-2.7-6.76-8-12.1-13.63-16.64C740.47,291.73,746.06,292.85,749.5,296.11Z" transform="translate(262 -39)"/><rect class="cls-1" x="629.5" y="269.5" width="753" height="52"/><path d="M1120,309v51H368V309h752m1-1H367v53h754V308Z" transform="translate(262 -39)"/><text class="cls-3" transform="translate(1001.32 171.3)">E</text><circle class="cls-4" cx="1004" cy="403" r="24"/><line class="cls-4" x1="1004" y1="379" x2="1004" y2="427"/><line class="cls-4" x1="980" y1="403" x2="1028" y2="403"/><line class="cls-4" x1="1431" y1="53" x2="1431" y2="53"/><rect class="cls-1" x="638.5" y="484.5" width="753" height="52"/><path d="M1129,524v51H377V524h752m1-1H376v53h754V523Z" transform="translate(262 -39)"/><line class="cls-2" x1="1004.5" y1="427" x2="1004.5" y2="472.32"/><path d="M742.5,510.11c3.13-3.13,9.33-4.63,13.63-4.75-5.77,4.3-10.81,9.88-13.63,16.64-2.7-6.76-8-12.1-13.63-16.64C733.47,505.73,739.06,506.85,742.5,510.11Z" transform="translate(262 -39)"/><rect class="cls-2" x="455" y="628.16" width="98.18" height="74.11"/><text class="cls-5" transform="translate(484.14 656.42) scale(1.2 1)">S1<tspan class="cls-6" x="-6.97" y="31.08">B</tspan><tspan class="cls-7" x="7.18" y="31.08">o</tspan><tspan x="21.03" y="31.08">x</tspan></text><rect class="cls-2" x="594.52" y="628.16" width="98.18" height="74.11"/><text class="cls-5" transform="translate(623.66 656.42) scale(1.2 1)">S2<tspan class="cls-6" x="-6.97" y="31.08">B</tspan><tspan class="cls-7" x="7.18" y="31.08">o</tspan><tspan x="21.03" y="31.08">x</tspan></text><rect class="cls-2" x="734.91" y="628.16" width="98.18" height="74.11"/><text class="cls-5" transform="translate(768.35 656.42) scale(1.2 1)">S3<tspan class="cls-6" x="-6.97" y="31.08">B</tspan><tspan class="cls-7" x="7.18" y="31.08">o</tspan><tspan x="21.03" y="31.08">x</tspan></text><rect class="cls-2" x="879.6" y="628.16" width="98.18" height="74.11"/><text class="cls-5" transform="translate(913.05 656.42) scale(1.2 1)">S4<tspan class="cls-6" x="-6.97" y="31.08">B</tspan><tspan class="cls-7" x="7.18" y="31.08">o</tspan><tspan x="21.03" y="31.08">x</tspan></text><rect class="cls-2" x="1020.85" y="628.16" width="98.18" height="74.11"/><text class="cls-5" transform="translate(1054.29 656.42) scale(1.2 1)">S5<tspan class="cls-6" x="-6.97" y="31.08">B</tspan><tspan class="cls-7" x="7.18" y="31.08">o</tspan><tspan x="21.03" y="31.08">x</tspan></text><rect class="cls-2" x="1162.96" y="628.16" width="98.18" height="74.11"/><text class="cls-5" transform="translate(1196.4 656.42) scale(1.2 1)">S6<tspan class="cls-6" x="-6.97" y="31.08">B</tspan><tspan class="cls-8" x="7.17" y="31.08">o</tspan><tspan x="21.03" y="31.08">x</tspan></text><rect class="cls-2" x="1306.79" y="628.16" width="98.18" height="74.11"/><text class="cls-5" transform="translate(1340.23 656.42) scale(1.2 1)">S7<tspan class="cls-6" x="-6.97" y="31.08">B</tspan><tspan class="cls-8" x="7.17" y="31.08">o</tspan><tspan x="21.03" y="31.08">x</tspan></text><rect class="cls-2" x="1446.32" y="628.16" width="98.18" height="74.11"/><text class="cls-5" transform="translate(1479.76 656.42) scale(1.2 1)">S8<tspan class="cls-6" x="-6.97" y="31.08">B</tspan><tspan class="cls-8" x="7.17" y="31.08">o</tspan><tspan x="21.03" y="31.08">x</tspan></text><line class="cls-2" x1="1001.04" y1="537.5" x2="1001.04" y2="567"/><line class="cls-2" x1="499.79" y1="567" x2="1495.41" y2="567"/><line class="cls-2" x1="499.79" y1="567.36" x2="499.79" y2="596.97"/><path d="M237.79,634.77c3.13-3.14,9.33-4.63,13.63-4.76-5.77,4.3-10.81,9.89-13.63,16.64-2.71-6.75-8-12.09-13.64-16.64C228.76,630.38,234.35,631.51,237.79,634.77Z" transform="translate(262 -39)"/><line class="cls-2" x1="644.48" y1="567.36" x2="644.48" y2="596.97"/><path d="M382.48,634.77c3.13-3.14,9.33-4.63,13.63-4.76-5.77,4.3-10.81,9.89-13.63,16.64-2.71-6.75-8.05-12.09-13.64-16.64C373.45,630.38,379,631.51,382.48,634.77Z" transform="translate(262 -39)"/><line class="cls-2" x1="784" y1="567.36" x2="784" y2="596.97"/><path d="M522,634.77c3.14-3.14,9.34-4.63,13.64-4.76-5.78,4.3-10.81,9.89-13.64,16.64-2.7-6.75-8-12.09-13.63-16.64C513,630.38,518.56,631.51,522,634.77Z" transform="translate(262 -39)"/><line class="cls-2" x1="929.56" y1="565.2" x2="929.56" y2="594.81"/><path d="M667.56,632.61c3.13-3.14,9.33-4.63,13.63-4.76-5.77,4.3-10.81,9.89-13.63,16.65-2.71-6.76-8-12.1-13.64-16.65C658.53,628.22,664.12,629.35,667.56,632.61Z" transform="translate(262 -39)"/><line class="cls-2" x1="1069.08" y1="567.36" x2="1069.08" y2="596.97"/><path d="M807.08,634.77c3.14-3.14,9.34-4.63,13.64-4.76-5.78,4.3-10.81,9.89-13.64,16.64-2.7-6.75-8-12.09-13.63-16.64C798.05,630.38,803.64,631.51,807.08,634.77Z" transform="translate(262 -39)"/><line class="cls-2" x1="1212.05" y1="565.2" x2="1212.05" y2="594.81"/><path d="M950.05,632.61c3.14-3.14,9.34-4.63,13.64-4.76-5.78,4.3-10.81,9.89-13.64,16.65-2.7-6.76-8-12.1-13.63-16.65C941,628.22,946.61,629.35,950.05,632.61Z" transform="translate(262 -39)"/><line class="cls-2" x1="1355.02" y1="567.36" x2="1355.02" y2="596.97"/><path d="M1093,634.77c3.14-3.14,9.34-4.63,13.64-4.76-5.78,4.3-10.81,9.89-13.64,16.64-2.7-6.75-8-12.09-13.63-16.64C1084,630.38,1089.58,631.51,1093,634.77Z" transform="translate(262 -39)"/><line class="cls-2" x1="1494.55" y1="566.64" x2="1494.55" y2="596.25"/><path d="M1232.55,634.05c3.13-3.14,9.33-4.63,13.63-4.76-5.77,4.3-10.81,9.89-13.63,16.64-2.71-6.75-8-12.09-13.64-16.64C1223.52,629.66,1229.11,630.79,1232.55,634.05Z" transform="translate(262 -39)"/><line class="cls-2" x1="499.79" y1="736.81" x2="499.79" y2="771.35"/><line class="cls-2" x1="639.31" y1="737.17" x2="639.31" y2="771.71"/><line class="cls-2" x1="784" y1="735.73" x2="784" y2="770.27"/><line class="cls-2" x1="499.79" y1="771.35" x2="1494.55" y2="771.35"/><line class="cls-2" x1="928.7" y1="737.17" x2="928.7" y2="771.71"/><line class="cls-2" x1="1069.94" y1="735.73" x2="1069.94" y2="770.27"/><line class="cls-2" x1="1212.05" y1="735.01" x2="1212.05" y2="769.55"/><line class="cls-2" x1="1357.61" y1="735.01" x2="1357.61" y2="769.55"/><line class="cls-2" x1="1494.55" y1="737.17" x2="1494.55" y2="771.71"/><line class="cls-2" x1="987.26" y1="772.07" x2="987.26" y2="801.32"/><path d="M725.26,839.11c3.14-3.13,9.34-4.63,13.64-4.75-5.78,4.3-10.81,9.88-13.64,16.64-2.7-6.76-8-12.1-13.63-16.64C716.23,834.73,721.82,835.85,725.26,839.11Z" transform="translate(262 -39)"/><rect class="cls-2" x="930.5" y="910.5" width="107" height="80"/><text class="cls-3" transform="translate(974.32 963.3)">P</text><line class="cls-2" x1="1004.5" y1="323" x2="1004.5" y2="368.32"/><path d="M742.5,406.11c3.13-3.13,9.33-4.63,13.63-4.75-5.77,4.3-10.81,9.88-13.63,16.64-2.7-6.76-8-12.1-13.63-16.64C733.47,401.73,739.06,402.85,742.5,406.11Z" transform="translate(262 -39)"/><line class="cls-2" x1="1068.5" y1="402.5" x2="1039.18" y2="403.23"/><path d="M778.39,442.2c3.21,3.06,4.86,9.22,5.09,13.51-4.44-5.66-10.15-10.56-17-13.21,6.69-2.87,11.89-8.34,16.29-14.05C782.54,433.07,781.56,438.68,778.39,442.2Z" transform="translate(262 -39)"/><rect class="cls-1" x="0.5" y="0.5" width="594" height="52"/><path d="M332,40V91H-261V40H332m1-1H-262V92H333V39Z" transform="translate(262 -39)"/><rect class="cls-1" x="0.5" y="1042.5" width="594" height="52"/><path d="M332,1082v51H-261v-51H332m1-1H-262v53H333v-53Z" transform="translate(262 -39)"/><rect class="cls-1" x="880.5" y="1042.5" width="636" height="52"/><path d="M1254,1082v51H619v-51h635m1-1H618v53h637v-53Z" transform="translate(262 -39)"/></svg>